# xmcd
#
# Track frame offsets:
#	150
#	14590
#	30236
#	45957
#	60831
#	78054
#	90865
#	107285
#	118486
#	130438
#	143123
#	157483
#	168957
#	191410
#
# Disc length: 2714 seconds
#
# Revision: 0
# Processed by: cddbd v1.5.2PL0 Copyright (c) Steve Scherf et al.
# Submitted via: EasyCDDAExtractor 12.0.1.1
#
DISCID=a50a980e
DTITLE=Down Home Blues - Backroad Playboys
DYEAR=2007
DGENRE=Blues
TTITLE0=Killin' Eyes (It Doesnt Make Sense)
TTITLE1=Don't Know What To Do
TTITLE2=Show Me A Sign
TTITLE3=Just Set Me Free
TTITLE4=She's Crazy
TTITLE5=Stop What You're Doing
TTITLE6=Will You Be Crying
TTITLE7=Before Sorrow Comes Around
TTITLE8=You'r Just A Teaser
TTITLE9=I Did'nt Mean To
TTITLE10=Oh Mr. Blues
TTITLE11=I Wanna Be A Man (Jsut For You)
TTITLE12=Ghost Of Mistakes
TTITLE13=Jug Of Wine
EXTD=
EXTT0=
EXTT1=
EXTT2=
EXTT3=
EXTT4=
EXTT5=
EXTT6=
EXTT7=
EXTT8=
EXTT9=
EXTT10=
EXTT11=
EXTT12=
EXTT13=
PLAYORDER=
